<svg width="23" height="23" viewBox="0 0 23 23" fill="none" xmlns="http://www.w3.org/2000/svg">
<rect x="1" y="1" width="21" height="21" fill="#283593" stroke="#90CAF9" stroke-width="2"/>
<path d="M5.888 7.6V16H7.916V7.6H5.888ZM7.16 9.268H8.804C9.212 9.268 9.532 9.36 9.764 9.544C9.996 9.728 10.112 9.996 10.112 10.348C10.112 10.692 9.996 10.956 9.764 11.14C9.532 11.324 9.212 11.416 8.804 11.416H7.16V13.084H8.804C9.516 13.084 10.112 12.976 10.592 12.76C11.08 12.536 11.448 12.22 11.696 11.812C11.944 11.396 12.068 10.908 12.068 10.348C12.068 9.772 11.944 9.28 11.696 8.872C11.448 8.464 11.08 8.152 10.592 7.936C10.112 7.712 9.516 7.6 8.804 7.6H7.16V9.268ZM13.1213 13.996L12.3653 15.196C12.6133 15.388 12.8813 15.564 13.1693 15.724C13.4573 15.876 13.7693 15.996 14.1053 16.084C14.4493 16.18 14.8213 16.228 15.2213 16.228C15.8773 16.228 16.3853 16.08 16.7453 15.784C17.1133 15.48 17.2973 15.032 17.2973 14.44C17.2973 14.096 17.2213 13.82 17.0693 13.612C16.9253 13.404 16.7293 13.232 16.4813 13.096C16.2413 12.96 15.9773 12.84 15.6893 12.736C15.4173 12.632 15.1853 12.548 14.9933 12.484C14.8093 12.412 14.6653 12.336 14.5613 12.256C14.4653 12.176 14.4173 12.076 14.4173 11.956C14.4173 11.852 14.4573 11.768 14.5373 11.704C14.6253 11.64 14.7533 11.608 14.9213 11.608C15.1693 11.608 15.4413 11.68 15.7373 11.824C16.0333 11.96 16.2973 12.136 16.5293 12.352L17.1773 11.176C16.9613 11.016 16.7293 10.876 16.4813 10.756C16.2413 10.636 15.9813 10.54 15.7013 10.468C15.4293 10.396 15.1333 10.36 14.8133 10.36C14.4133 10.36 14.0573 10.42 13.7453 10.54C13.4413 10.66 13.1973 10.836 13.0133 11.068C12.8373 11.3 12.7493 11.584 12.7493 11.92C12.7493 12.272 12.8253 12.56 12.9773 12.784C13.1293 13.008 13.3213 13.188 13.5533 13.324C13.7933 13.452 14.0453 13.564 14.3093 13.66C14.6053 13.748 14.8373 13.832 15.0053 13.912C15.1813 13.992 15.3053 14.076 15.3773 14.164C15.4493 14.244 15.4853 14.344 15.4853 14.464C15.4853 14.592 15.4413 14.696 15.3533 14.776C15.2653 14.856 15.1293 14.896 14.9453 14.896C14.8173 14.896 14.6653 14.872 14.4893 14.824C14.3133 14.768 14.1093 14.676 13.8773 14.548C13.6533 14.412 13.4013 14.228 13.1213 13.996Z" fill="#90CAF9"/>
</svg>
