<svg xmlns="http://www.w3.org/2000/svg" xmlns:xlink="http://www.w3.org/1999/xlink"><defs>
<clipPath id="clip0_403_94">
<rect width="15.1964" height="23" fill="white"/>
</clipPath>
</defs><symbol id="arrow-next" viewBox="0 0 30 22"><g fill="none">
<path d="M2.07562 39.0585L0.0774441 37.0107L17.093 19.5639L0.021965 2.06243L2.0211 0.0146294L21.0894 19.5639L2.07562 39.0585Z"/>
                </g></symbol><symbol id="arrow-prew" viewBox="0 0 30 22"><g fill="none">
  <path d="M20.83.97l2.09 2.1L5.13 20.94l17.85 17.94-2.1 2.1L.96 20.95 20.83.97z"/>
</g></symbol><symbol id="corel-icon" viewBox="0 0 23 23"><g fill="none">
<circle cx="11.5" cy="11.5" r="11.5" fill="#42A54C"/>
<path fill-rule="evenodd" clip-rule="evenodd" d="M11.5 23V0C17.8513 0 23 5.14873 23 11.5C23 17.8513 17.8513 23 11.5 23Z" fill="#3C9C46"/>
<path fill-rule="evenodd" clip-rule="evenodd" d="M2.93033 3.83103L10.3852 11.5587L11.7347 10.2679L4.27046 2.55616C4.68618 2.2197 5.12584 1.91163 5.58647 1.63492L13.7883 10.0332L8.27296 15.4311L0.678833 7.59819C1.18459 6.19578 1.95521 4.91994 2.93033 3.83103ZM14.3164 10.6199L8.85972 15.9005L16.722 18.5995L14.3164 10.6199Z" fill="white"/>
<path fill-rule="evenodd" clip-rule="evenodd" d="M11.5 10.0254V7.69009L13.7883 10.0332L11.5 12.2728V10.4924L11.7347 10.2679L11.5 10.0254ZM11.5 16.8069V13.3454L14.3164 10.6199L16.722 18.5995L11.5 16.8069Z" fill="#EBEBEB" fill-opacity="0.9216"/>
</g></symbol><symbol id="css-icon" viewBox="0 0 20 23"><g fill="none">
<path d="M20 0H0L1.87702 20.6149L9.67638 22.6861L18.0906 20.6149L20 0Z" fill="#1572B7"/>
<path d="M18.1552 1.68286H9.96753V21.0356L16.6342 19.2233L18.1552 1.68286Z" fill="#34A8DB"/>
<path d="M16.7673 3.62463H3.17163L3.45099 6.32513H10.2798L3.69931 9.05668L3.9166 11.6951H13.2907L13.1045 15.1716L10.0626 16.0407L7.0827 15.3268L6.89646 13.154H4.10284L4.44428 17.3444L10.0626 19.0206L15.6498 17.3444L16.3327 9.05668H10.0626L16.55 6.32513L16.7673 3.62463Z" fill="white"/>
<path fill-rule="evenodd" clip-rule="evenodd" d="M9.93821 3.62463H3.17163L3.45099 6.32513H9.93821V3.62463ZM9.93821 6.46694L3.69931 9.05668L3.9166 11.6951H9.93821V6.46694ZM9.93821 16.0109V18.9835L4.44428 17.3444L4.10284 13.154H6.89646L7.0827 15.3268L9.93821 16.0109Z" fill="#C4C4C4"/>
</g></symbol><symbol id="figma-icon" viewBox="0 0 16 23"><g fill="none">
<g clip-path="url(#clip0_403_94)">
<path d="M3.79981 23C5.8965 23 7.59816 21.2827 7.59816 19.1667V15.3333H3.79981C1.70312 15.3333 0.00146484 17.0507 0.00146484 19.1667C0.00146484 21.2827 1.70312 23 3.79981 23Z" fill="#0ACF83"/>
<path d="M0.00146484 11.5C0.00146484 9.38399 1.70312 7.66666 3.79981 7.66666H7.59816V15.3333H3.79981C1.70312 15.3333 0.00146484 13.616 0.00146484 11.5Z" fill="#A259FF"/>
<path d="M0.00158691 3.83333C0.00158691 1.71733 1.70325 0 3.79993 0H7.59828V7.66666H3.79993C1.70325 7.66666 0.00158691 5.94933 0.00158691 3.83333Z" fill="#F24E1E"/>
<path d="M7.59827 0H11.3966C13.4933 0 15.195 1.71733 15.195 3.83333C15.195 5.94933 13.4933 7.66666 11.3966 7.66666H7.59827V0Z" fill="#FF7262"/>
<path d="M15.195 11.5C15.195 13.616 13.4933 15.3333 11.3966 15.3333C9.29993 15.3333 7.59827 13.616 7.59827 11.5C7.59827 9.38399 9.29993 7.66666 11.3966 7.66666C13.4933 7.66666 15.195 9.38399 15.195 11.5Z" fill="#1ABCFE"/>
</g>

</g></symbol><symbol id="github-icon" viewBox="0 0 21 21"><g fill="none">
<path d="M10.0154 0.764771C4.48976 0.762537 0.0142822 5.23578 0.0142822 10.757C0.0142822 15.1229 2.81397 18.8343 6.71297 20.1972C7.23806 20.3291 7.15762 19.9559 7.15762 19.7012V17.9696C4.12556 18.3248 4.00266 16.3183 3.79933 15.9832C3.38821 15.2816 2.41625 15.1028 2.70672 14.7677C3.39714 14.4124 4.10098 14.8571 4.91653 16.0614C5.50641 16.935 6.65712 16.7876 7.24029 16.6423C7.36765 16.1172 7.64025 15.648 8.01562 15.2838C4.87407 14.7208 3.56472 12.8036 3.56472 10.5246C3.56472 9.41855 3.92893 8.40191 4.64393 7.58189C4.18812 6.23008 4.68639 5.07267 4.75342 4.90062C6.0516 4.78443 7.40117 5.83013 7.50618 5.9128C8.24353 5.71394 9.08589 5.60892 10.0288 5.60892C10.9762 5.60892 11.8208 5.71841 12.5648 5.9195C12.8173 5.72735 14.0686 4.82912 15.2751 4.93861C15.3399 5.11065 15.827 6.24125 15.398 7.57518C16.122 8.39744 16.4907 9.42302 16.4907 10.5313C16.4907 12.8148 15.1724 14.7342 12.0219 15.2883C12.2917 15.5537 12.506 15.8702 12.6522 16.2193C12.7983 16.5684 12.8735 16.9431 12.8732 17.3216V19.8353C12.8911 20.0364 12.8732 20.2352 13.2083 20.2352C17.1654 18.9013 20.0143 15.1632 20.0143 10.7592C20.0143 5.23578 15.5366 0.764771 10.0154 0.764771V0.764771Z" fill="black"/>
</g></symbol><symbol id="html-icon" viewBox="0 0 20 23"><g fill="none">
<path fill-rule="evenodd" clip-rule="evenodd" d="M9.97135 0H0L1.95725 19.7667L9.97135 22.0597L17.9788 19.7667L20 0" fill="#E4492F"/>
<path fill-rule="evenodd" clip-rule="evenodd" d="M16.4078 18.6265L18.1036 1.46381H9.89221V20.3397" fill="#E96D31"/>
<path fill-rule="evenodd" clip-rule="evenodd" d="M12.825 14.3035L9.89237 15.4496L7.02953 14.5589V12.6528L4.35179 12.5843L4.67689 16.3346L9.82814 17.9853L15.0946 16.4591L15.7514 8.95228H6.44296L6.18149 6.41666H15.949L16.0829 3.93082H3.51648L4.23696 11.3694H12.8313" fill="white"/>
</g></symbol><symbol id="js-icon" viewBox="0 0 20 23"><g fill="none">
<path d="M20 0H0L1.87702 20.6149L9.67638 22.6861L18.0906 20.6149L20 0Z" fill="#D4B830"/>
<path opacity="0.986" d="M8.53733 17.8115C8.27992 17.7335 7.00847 17.3903 5.71362 17.0393L3.36572 16.4075V15.2296C3.36572 14.0752 3.36572 14.0518 3.48273 14.0908C3.54513 14.1142 4.40316 14.3482 5.386 14.6212L7.17227 15.1126L7.18788 9.8864L7.20348 4.66019H9.15355V11.3061C9.15355 16.5869 9.13795 17.9519 9.08335 17.9519C9.04435 17.9441 8.79474 17.8817 8.53733 17.8115V17.8115Z" fill="white"/>
<path d="M18.2201 1.68286H10.0323V21.0356L16.699 19.2233L18.2201 1.68286Z" fill="#FDD83C"/>
<path d="M17.3139 4.59546H10.9385V13.2362L14.822 12.589V14.5307L10.9385 15.5016V17.9288L16.343 16.6019L16.8284 9.99999L12.8479 10.4207V6.95792H17.1197L17.3139 4.59546Z" fill="white"/>
</g></symbol><symbol id="phone-icon" viewBox="0 0 21 21"><g fill="none">
<path fill-rule="evenodd" clip-rule="evenodd" d="M10.9598 20.5C16.4827 20.5 20.9598 16.0228 20.9598 10.5C20.9598 4.97715 16.4827 0.5 10.9598 0.5C5.43699 0.5 0.959839 4.97715 0.959839 10.5C0.959839 16.0228 5.43699 20.5 10.9598 20.5ZM7.60443 2.52502H14.3152C14.9563 2.52502 15.4759 3.0458 15.4759 3.68689V17.3142C15.4759 17.9548 14.9563 18.4749 14.3152 18.4749H7.60443C6.96218 18.4749 6.44373 17.9548 6.44373 17.3142V3.68689C6.44373 3.0458 6.96218 2.52502 7.60443 2.52502ZM12.6169 3.23063H9.30392C9.21965 3.23063 9.15281 3.35559 9.15281 3.5102C9.15281 3.6648 9.21965 3.79035 9.30392 3.79035H12.6169C12.7006 3.79035 12.7686 3.6648 12.7686 3.5102C12.7686 3.35559 12.7006 3.23063 12.6169 3.23063ZM10.2194 16.5866C10.2194 16.9957 10.5518 17.3282 10.9604 17.3282C11.3678 17.3282 11.7003 16.9957 11.7003 16.5866C11.7003 16.1774 11.3678 15.8461 10.9604 15.8461C10.5518 15.8461 10.2194 16.1774 10.2194 16.5866ZM7.31382 14.7888H14.6064V4.48549H7.31382V14.7888Z" fill="black"/>
</g></symbol><symbol id="ps-icon" viewBox="0 0 23 23"><g fill="none">
<rect x="1" y="1" width="21" height="21" fill="#283593" stroke="#90CAF9" stroke-width="2"/>
<path d="M5.888 7.6V16H7.916V7.6H5.888ZM7.16 9.268H8.804C9.212 9.268 9.532 9.36 9.764 9.544C9.996 9.728 10.112 9.996 10.112 10.348C10.112 10.692 9.996 10.956 9.764 11.14C9.532 11.324 9.212 11.416 8.804 11.416H7.16V13.084H8.804C9.516 13.084 10.112 12.976 10.592 12.76C11.08 12.536 11.448 12.22 11.696 11.812C11.944 11.396 12.068 10.908 12.068 10.348C12.068 9.772 11.944 9.28 11.696 8.872C11.448 8.464 11.08 8.152 10.592 7.936C10.112 7.712 9.516 7.6 8.804 7.6H7.16V9.268ZM13.1213 13.996L12.3653 15.196C12.6133 15.388 12.8813 15.564 13.1693 15.724C13.4573 15.876 13.7693 15.996 14.1053 16.084C14.4493 16.18 14.8213 16.228 15.2213 16.228C15.8773 16.228 16.3853 16.08 16.7453 15.784C17.1133 15.48 17.2973 15.032 17.2973 14.44C17.2973 14.096 17.2213 13.82 17.0693 13.612C16.9253 13.404 16.7293 13.232 16.4813 13.096C16.2413 12.96 15.9773 12.84 15.6893 12.736C15.4173 12.632 15.1853 12.548 14.9933 12.484C14.8093 12.412 14.6653 12.336 14.5613 12.256C14.4653 12.176 14.4173 12.076 14.4173 11.956C14.4173 11.852 14.4573 11.768 14.5373 11.704C14.6253 11.64 14.7533 11.608 14.9213 11.608C15.1693 11.608 15.4413 11.68 15.7373 11.824C16.0333 11.96 16.2973 12.136 16.5293 12.352L17.1773 11.176C16.9613 11.016 16.7293 10.876 16.4813 10.756C16.2413 10.636 15.9813 10.54 15.7013 10.468C15.4293 10.396 15.1333 10.36 14.8133 10.36C14.4133 10.36 14.0573 10.42 13.7453 10.54C13.4413 10.66 13.1973 10.836 13.0133 11.068C12.8373 11.3 12.7493 11.584 12.7493 11.92C12.7493 12.272 12.8253 12.56 12.9773 12.784C13.1293 13.008 13.3213 13.188 13.5533 13.324C13.7933 13.452 14.0453 13.564 14.3093 13.66C14.6053 13.748 14.8373 13.832 15.0053 13.912C15.1813 13.992 15.3053 14.076 15.3773 14.164C15.4493 14.244 15.4853 14.344 15.4853 14.464C15.4853 14.592 15.4413 14.696 15.3533 14.776C15.2653 14.856 15.1293 14.896 14.9453 14.896C14.8173 14.896 14.6653 14.872 14.4893 14.824C14.3133 14.768 14.1093 14.676 13.8773 14.548C13.6533 14.412 13.4013 14.228 13.1213 13.996Z" fill="#90CAF9"/>
</g></symbol><symbol id="scss-icon" viewBox="0 0 30 22"><g fill="none">
<path d="M24.958 12.4944C23.9447 12.4996 23.0666 12.7432 22.3306 13.1057C22.0615 12.5686 21.7889 12.0959 21.7431 11.7444C21.6897 11.3344 21.6276 11.0896 21.692 10.6007C21.7564 10.1117 22.0394 9.4198 22.0348 9.36818C22.0307 9.31656 21.9716 9.06774 21.3869 9.0631C20.8023 9.05904 20.3023 9.17562 20.2432 9.3299C20.184 9.48418 20.0715 9.8316 20.0019 10.1941C19.8992 10.7242 18.8349 12.615 18.23 13.6039C18.0322 13.2176 17.864 12.8778 17.8292 12.6086C17.7759 12.1986 17.7138 11.9538 17.7782 11.4649C17.8426 10.9759 18.1256 10.284 18.121 10.2324C18.1169 10.1808 18.0577 9.93194 17.4731 9.9273C16.8885 9.92324 16.3885 10.0398 16.3293 10.1941C16.2702 10.3484 16.2075 10.7091 16.0881 11.0583C15.968 11.4075 14.5528 14.5609 14.1822 15.3781C13.9931 15.7946 13.829 16.1292 13.713 16.3578C13.7124 16.3572 13.7124 16.3566 13.7124 16.3566C13.7124 16.3566 13.7054 16.3717 13.6927 16.3978C13.5935 16.5921 13.5343 16.7 13.5343 16.7C13.5343 16.7 13.5349 16.7017 13.5361 16.704C13.4572 16.8467 13.3731 16.9795 13.3313 16.9795C13.3023 16.9795 13.2437 16.599 13.3441 16.0776C13.5546 14.9837 14.0604 13.2774 14.0557 13.2188C14.0534 13.1886 14.1497 12.8917 13.7251 12.7357C13.3128 12.5849 13.1654 12.8366 13.1277 12.8372C13.0912 12.8377 13.0639 12.9259 13.0639 12.9259C13.0639 12.9259 13.5239 11.0073 12.187 11.0073C11.3518 11.0073 10.1941 11.9213 9.62339 12.7496C9.26379 12.9456 8.49355 13.3661 7.67633 13.815C7.36255 13.9873 7.04239 14.1636 6.73847 14.3312C6.71759 14.3086 6.69729 14.2854 6.67583 14.2628C5.05531 12.5338 2.06019 11.3112 2.18721 8.98712C2.23361 8.14206 2.52709 5.91718 7.94313 3.21844C12.3795 1.00748 15.9315 1.6159 16.5451 2.9644C17.4221 4.89058 14.6468 8.47092 10.0398 8.98712C8.28417 9.18374 7.36023 8.5034 7.12997 8.24994C6.88811 7.98314 6.85215 7.97096 6.76167 8.02142C6.61435 8.1032 6.70773 8.33868 6.76167 8.47904C6.89913 8.8369 7.46347 9.472 8.42627 9.78752C9.27307 10.0653 11.3338 10.2179 13.8266 9.25392C16.6182 8.17396 18.7978 5.17014 18.1581 2.65932C17.5067 0.105578 13.2727 -0.733683 9.26553 0.689637C6.88057 1.53702 4.29899 2.86696 2.44241 4.6029C0.234927 6.6677 -0.116553 8.46454 0.0284473 9.21506C0.544067 11.8831 4.22069 13.6202 5.69331 14.9078C5.62081 14.9478 5.55237 14.9855 5.49031 15.0197C4.75197 15.3851 1.94941 16.8519 1.24819 18.4017C0.453007 20.1597 1.37463 21.4212 1.98537 21.5911C3.87617 22.1172 5.81685 21.1706 6.85969 19.615C7.90253 18.0601 7.77493 16.0353 7.29643 15.1108C7.29063 15.0992 7.28367 15.0881 7.27787 15.0765C7.46869 14.9634 7.66299 14.8492 7.85555 14.7361C8.23139 14.5157 8.60027 14.3098 8.92043 14.1352C8.74121 14.6259 8.61013 15.214 8.54169 16.0637C8.46165 17.0619 8.87055 18.3518 9.40589 18.8593C9.64137 19.0826 9.92499 19.0878 10.1048 19.0878C10.7277 19.0878 11.0119 18.5699 11.3245 17.9568C11.7085 17.2051 12.0489 16.3305 12.0489 16.3305C12.0489 16.3305 11.6215 18.694 12.7861 18.694C13.2101 18.694 13.637 18.1436 13.8272 17.8634C13.8278 17.8663 13.8278 17.8681 13.8278 17.8681C13.8278 17.8681 13.8388 17.8501 13.8603 17.813C13.9044 17.7457 13.9293 17.7028 13.9293 17.7028C13.9293 17.7028 13.9305 17.6981 13.9316 17.6906C14.1021 17.3948 14.4803 16.7197 15.0475 15.6061C15.7801 14.1677 16.483 12.3662 16.483 12.3662C16.483 12.3662 16.5486 12.807 16.7626 13.5349C16.8885 13.9635 17.1564 14.4374 17.3675 14.8915C17.1976 15.1276 17.0932 15.2627 17.0932 15.2627C17.0932 15.2627 17.0944 15.265 17.0961 15.2697C16.9604 15.4501 16.8078 15.6444 16.6483 15.8346C16.0701 16.5236 15.381 17.3101 15.2888 17.5375C15.1804 17.8049 15.2059 18.0021 15.4158 18.1598C15.569 18.2752 15.8421 18.2932 16.1275 18.2741C16.6472 18.2393 17.0132 18.1099 17.1935 18.0316C17.4748 17.9325 17.8025 17.7759 18.1099 17.5497C18.6772 17.1326 19.0194 16.5358 18.9869 15.7453C18.9689 15.3097 18.8297 14.8782 18.654 14.4704C18.7056 14.3962 18.7572 14.322 18.8088 14.246C19.7032 12.9381 20.3969 11.5014 20.3969 11.5014C20.3969 11.5014 20.4624 11.9422 20.6764 12.6701C20.7849 13.039 20.9989 13.4409 21.1909 13.8353C20.3499 14.5186 19.8285 15.3126 19.6469 15.8334C19.3123 16.7968 19.5744 17.2336 20.0663 17.3327C20.289 17.378 20.6039 17.2759 20.8406 17.1756C21.1352 17.0781 21.489 16.9151 21.8196 16.6721C22.3869 16.2551 22.9326 15.671 22.8996 14.8805C22.8845 14.5209 22.7871 14.1636 22.6548 13.8203C23.3676 13.5233 24.291 13.358 25.4667 13.4955C27.9891 13.7901 28.4838 15.3648 28.3893 16.0237C28.2947 16.6831 27.7658 17.0451 27.5889 17.1547C27.412 17.2643 27.358 17.302 27.3731 17.3832C27.3946 17.5015 27.4764 17.4969 27.6272 17.4714C27.8348 17.4366 28.9513 16.9354 28.9994 15.7186C29.0598 14.177 27.5796 12.4805 24.958 12.4944ZM5.51757 19.0484C4.68237 19.9596 3.51483 20.3041 3.01429 20.0141C2.47373 19.7009 2.68775 18.3588 3.71319 17.3919C4.33785 16.8026 5.14463 16.2597 5.67997 15.9251C5.80177 15.852 5.98041 15.7441 6.19791 15.6136C6.23387 15.5933 6.25417 15.5817 6.25417 15.5817L6.25359 15.5806C6.29535 15.5556 6.33885 15.5295 6.38293 15.5028C6.75587 16.8798 6.39453 18.092 5.51757 19.0484ZM11.6035 14.9107C11.3123 15.62 10.7033 17.4348 10.3327 17.3374C10.0143 17.2539 9.82059 15.874 10.2689 14.5168C10.4945 13.8336 10.9765 13.017 11.2601 12.6997C11.716 12.1899 12.2183 12.0228 12.3401 12.2299C12.4961 12.4932 11.7862 14.4658 11.6035 14.9107ZM16.6321 17.3101C16.5086 17.3745 16.3955 17.4151 16.3433 17.3838C16.3044 17.3606 16.3943 17.2759 16.3943 17.2759C16.3943 17.2759 17.023 16.599 17.2713 16.2911C17.4151 16.1118 17.5827 15.899 17.7643 15.6612C17.766 15.685 17.7666 15.7087 17.7666 15.7319C17.7643 16.5428 16.9813 17.0897 16.6321 17.3101ZM20.5059 16.4268C20.4137 16.3612 20.4294 16.1495 20.7315 15.4907C20.8504 15.232 21.1213 14.7958 21.5928 14.3794C21.6474 14.5505 21.681 14.7146 21.6798 14.8677C21.6735 15.888 20.9456 16.269 20.5059 16.4268Z" fill="#B86AB0"/>
</g></symbol></svg>