<svg width="152" height="152" fill="none" xmlns="http://www.w3.org/2000/svg"><path d="M0 10C0 4.477 4.477 0 10 0h132c5.523 0 10 4.477 10 10v132c0 5.523-4.477 10-10 10H10c-5.523 0-10-4.477-10-10V10Z" fill="#000"/><path d="M64.278 73.39H51.92L36.455 95.775h13.982l13.84-22.385Zm12.357-27.046H64.701v49.431h11.934v-49.43ZM69.15 56.442V46.344H58.628c-4.19 0-7.72.683-10.592 2.048-2.825 1.365-4.967 3.272-6.426 5.72-1.46 2.401-2.189 5.202-2.189 8.403 0 3.154.73 5.956 2.19 8.404 1.459 2.4 3.6 4.284 6.425 5.649 2.872 1.365 6.402 2.048 10.592 2.048H69.15v-9.251h-9.674c-1.554 0-2.919-.235-4.096-.706-1.177-.518-2.071-1.248-2.683-2.19-.612-.988-.918-2.165-.918-3.53 0-1.365.306-2.519.918-3.46.612-.989 1.506-1.742 2.683-2.26 1.177-.518 2.542-.777 4.096-.777h9.674Zm17.97-10.098v49.431h11.934v-49.43H87.119Zm7.485 9.816h9.674c2.401 0 4.284.541 5.65 1.624 1.365 1.083 2.048 2.66 2.048 4.731 0 2.025-.683 3.578-2.048 4.66-1.366 1.084-3.249 1.625-5.65 1.625h-9.674v9.816h9.674c4.19 0 7.698-.636 10.522-1.907 2.872-1.318 5.037-3.178 6.497-5.579 1.459-2.448 2.189-5.32 2.189-8.615 0-3.39-.73-6.284-2.189-8.685-1.46-2.401-3.625-4.237-6.497-5.508-2.824-1.319-6.332-1.978-10.522-1.978h-9.674v9.816Z" fill="#fff"/><circle cx="76" cy="121.775" r="8.708" fill="#FDD83C"/></svg>