<svg width="23" height="23" viewBox="0 0 23 23" fill="none" xmlns="http://www.w3.org/2000/svg">
<circle cx="11.5" cy="11.5" r="11.5" fill="#42A54C"/>
<path fill-rule="evenodd" clip-rule="evenodd" d="M11.5 23V0C17.8513 0 23 5.14873 23 11.5C23 17.8513 17.8513 23 11.5 23Z" fill="#3C9C46"/>
<path fill-rule="evenodd" clip-rule="evenodd" d="M2.93033 3.83103L10.3852 11.5587L11.7347 10.2679L4.27046 2.55616C4.68618 2.2197 5.12584 1.91163 5.58647 1.63492L13.7883 10.0332L8.27296 15.4311L0.678833 7.59819C1.18459 6.19578 1.95521 4.91994 2.93033 3.83103ZM14.3164 10.6199L8.85972 15.9005L16.722 18.5995L14.3164 10.6199Z" fill="white"/>
<path fill-rule="evenodd" clip-rule="evenodd" d="M11.5 10.0254V7.69009L13.7883 10.0332L11.5 12.2728V10.4924L11.7347 10.2679L11.5 10.0254ZM11.5 16.8069V13.3454L14.3164 10.6199L16.722 18.5995L11.5 16.8069Z" fill="#EBEBEB" fill-opacity="0.9216"/>
</svg>
