<svg width="20" height="23" viewBox="0 0 20 23" fill="none" xmlns="http://www.w3.org/2000/svg">
<path d="M20 0H0L1.87702 20.6149L9.67638 22.6861L18.0906 20.6149L20 0Z" fill="#1572B7"/>
<path d="M18.1552 1.68286H9.96753V21.0356L16.6342 19.2233L18.1552 1.68286Z" fill="#34A8DB"/>
<path d="M16.7673 3.62463H3.17163L3.45099 6.32513H10.2798L3.69931 9.05668L3.9166 11.6951H13.2907L13.1045 15.1716L10.0626 16.0407L7.0827 15.3268L6.89646 13.154H4.10284L4.44428 17.3444L10.0626 19.0206L15.6498 17.3444L16.3327 9.05668H10.0626L16.55 6.32513L16.7673 3.62463Z" fill="white"/>
<path d="M9.93821 3.62463H3.17163L3.45099 6.32513H9.93821V3.62463ZM9.93821 6.46694L3.69931 9.05668L3.9166 11.6951H9.93821V6.46694ZM9.93821 16.0109V18.9835L4.44428 17.3444L4.10284 13.154H6.89646L7.0827 15.3268L9.93821 16.0109Z" fill="#C4C4C4"/>
</svg>
