<svg width="16" height="23" viewBox="0 0 16 23" fill="none" xmlns="http://www.w3.org/2000/svg">
<g clip-path="url(#clip0_403_94)">
<path d="M3.79981 23C5.8965 23 7.59816 21.2827 7.59816 19.1667V15.3333H3.79981C1.70312 15.3333 0.00146484 17.0507 0.00146484 19.1667C0.00146484 21.2827 1.70312 23 3.79981 23Z" fill="#0ACF83"/>
<path d="M0.00146484 11.5C0.00146484 9.38399 1.70312 7.66666 3.79981 7.66666H7.59816V15.3333H3.79981C1.70312 15.3333 0.00146484 13.616 0.00146484 11.5Z" fill="#A259FF"/>
<path d="M0.00158691 3.83333C0.00158691 1.71733 1.70325 0 3.79993 0H7.59828V7.66666H3.79993C1.70325 7.66666 0.00158691 5.94933 0.00158691 3.83333Z" fill="#F24E1E"/>
<path d="M7.59827 0H11.3966C13.4933 0 15.195 1.71733 15.195 3.83333C15.195 5.94933 13.4933 7.66666 11.3966 7.66666H7.59827V0Z" fill="#FF7262"/>
<path d="M15.195 11.5C15.195 13.616 13.4933 15.3333 11.3966 15.3333C9.29993 15.3333 7.59827 13.616 7.59827 11.5C7.59827 9.38399 9.29993 7.66666 11.3966 7.66666C13.4933 7.66666 15.195 9.38399 15.195 11.5Z" fill="#1ABCFE"/>
</g>
<defs>
<clipPath id="clip0_403_94">
<rect width="15.1964" height="23" fill="white"/>
</clipPath>
</defs>
</svg>
