<svg width="21" height="21" viewBox="0 0 21 21" fill="none" xmlns="http://www.w3.org/2000/svg">
<path d="M10.0154 0.764771C4.48976 0.762537 0.0142822 5.23578 0.0142822 10.757C0.0142822 15.1229 2.81397 18.8343 6.71297 20.1972C7.23806 20.3291 7.15762 19.9559 7.15762 19.7012V17.9696C4.12556 18.3248 4.00266 16.3183 3.79933 15.9832C3.38821 15.2816 2.41625 15.1028 2.70672 14.7677C3.39714 14.4124 4.10098 14.8571 4.91653 16.0614C5.50641 16.935 6.65712 16.7876 7.24029 16.6423C7.36765 16.1172 7.64025 15.648 8.01562 15.2838C4.87407 14.7208 3.56472 12.8036 3.56472 10.5246C3.56472 9.41855 3.92893 8.40191 4.64393 7.58189C4.18812 6.23008 4.68639 5.07267 4.75342 4.90062C6.0516 4.78443 7.40117 5.83013 7.50618 5.9128C8.24353 5.71394 9.08589 5.60892 10.0288 5.60892C10.9762 5.60892 11.8208 5.71841 12.5648 5.9195C12.8173 5.72735 14.0686 4.82912 15.2751 4.93861C15.3399 5.11065 15.827 6.24125 15.398 7.57518C16.122 8.39744 16.4907 9.42302 16.4907 10.5313C16.4907 12.8148 15.1724 14.7342 12.0219 15.2883C12.2917 15.5537 12.506 15.8702 12.6522 16.2193C12.7983 16.5684 12.8735 16.9431 12.8732 17.3216V19.8353C12.8911 20.0364 12.8732 20.2352 13.2083 20.2352C17.1654 18.9013 20.0143 15.1632 20.0143 10.7592C20.0143 5.23578 15.5366 0.764771 10.0154 0.764771V0.764771Z" fill="black"/>
</svg>
