<svg width="20" height="23" viewBox="0 0 20 23" fill="none" xmlns="http://www.w3.org/2000/svg">
<path d="M20 0H0L1.87702 20.6149L9.67638 22.6861L18.0906 20.6149L20 0Z" fill="#D4B830"/>
<path opacity="0.986" d="M8.53733 17.8115C8.27992 17.7335 7.00847 17.3903 5.71362 17.0393L3.36572 16.4075V15.2296C3.36572 14.0752 3.36572 14.0518 3.48273 14.0908C3.54513 14.1142 4.40316 14.3482 5.386 14.6212L7.17227 15.1126L7.18788 9.8864L7.20348 4.66019H9.15355V11.3061C9.15355 16.5869 9.13795 17.9519 9.08335 17.9519C9.04435 17.9441 8.79474 17.8817 8.53733 17.8115V17.8115Z" fill="white"/>
<path d="M18.2201 1.68286H10.0323V21.0356L16.699 19.2233L18.2201 1.68286Z" fill="#FDD83C"/>
<path d="M17.3139 4.59546H10.9385V13.2362L14.822 12.589V14.5307L10.9385 15.5016V17.9288L16.343 16.6019L16.8284 9.99999L12.8479 10.4207V6.95792H17.1197L17.3139 4.59546Z" fill="white"/>
</svg>
