<svg width="21" height="21" viewBox="0 0 21 21" fill="none" xmlns="http://www.w3.org/2000/svg">
<path fill-rule="evenodd" clip-rule="evenodd" d="M10.9598 20.5C16.4827 20.5 20.9598 16.0228 20.9598 10.5C20.9598 4.97715 16.4827 0.5 10.9598 0.5C5.43699 0.5 0.959839 4.97715 0.959839 10.5C0.959839 16.0228 5.43699 20.5 10.9598 20.5ZM7.60443 2.52502H14.3152C14.9563 2.52502 15.4759 3.0458 15.4759 3.68689V17.3142C15.4759 17.9548 14.9563 18.4749 14.3152 18.4749H7.60443C6.96218 18.4749 6.44373 17.9548 6.44373 17.3142V3.68689C6.44373 3.0458 6.96218 2.52502 7.60443 2.52502ZM12.6169 3.23063H9.30392C9.21965 3.23063 9.15281 3.35559 9.15281 3.5102C9.15281 3.6648 9.21965 3.79035 9.30392 3.79035H12.6169C12.7006 3.79035 12.7686 3.6648 12.7686 3.5102C12.7686 3.35559 12.7006 3.23063 12.6169 3.23063ZM10.2194 16.5866C10.2194 16.9957 10.5518 17.3282 10.9604 17.3282C11.3678 17.3282 11.7003 16.9957 11.7003 16.5866C11.7003 16.1774 11.3678 15.8461 10.9604 15.8461C10.5518 15.8461 10.2194 16.1774 10.2194 16.5866ZM7.31382 14.7888H14.6064V4.48549H7.31382V14.7888Z" fill="black"/>
</svg>
