<svg width="30" height="22" viewBox="0 0 30 22" fill="none" xmlns="http://www.w3.org/2000/svg">
<path d="M24.958 12.4944C23.9447 12.4996 23.0666 12.7432 22.3306 13.1057C22.0615 12.5686 21.7889 12.0959 21.7431 11.7444C21.6897 11.3344 21.6276 11.0896 21.692 10.6007C21.7564 10.1117 22.0394 9.4198 22.0348 9.36818C22.0307 9.31656 21.9716 9.06774 21.3869 9.0631C20.8023 9.05904 20.3023 9.17562 20.2432 9.3299C20.184 9.48418 20.0715 9.8316 20.0019 10.1941C19.8992 10.7242 18.8349 12.615 18.23 13.6039C18.0322 13.2176 17.864 12.8778 17.8292 12.6086C17.7759 12.1986 17.7138 11.9538 17.7782 11.4649C17.8426 10.9759 18.1256 10.284 18.121 10.2324C18.1169 10.1808 18.0577 9.93194 17.4731 9.9273C16.8885 9.92324 16.3885 10.0398 16.3293 10.1941C16.2702 10.3484 16.2075 10.7091 16.0881 11.0583C15.968 11.4075 14.5528 14.5609 14.1822 15.3781C13.9931 15.7946 13.829 16.1292 13.713 16.3578C13.7124 16.3572 13.7124 16.3566 13.7124 16.3566C13.7124 16.3566 13.7054 16.3717 13.6927 16.3978C13.5935 16.5921 13.5343 16.7 13.5343 16.7C13.5343 16.7 13.5349 16.7017 13.5361 16.704C13.4572 16.8467 13.3731 16.9795 13.3313 16.9795C13.3023 16.9795 13.2437 16.599 13.3441 16.0776C13.5546 14.9837 14.0604 13.2774 14.0557 13.2188C14.0534 13.1886 14.1497 12.8917 13.7251 12.7357C13.3128 12.5849 13.1654 12.8366 13.1277 12.8372C13.0912 12.8377 13.0639 12.9259 13.0639 12.9259C13.0639 12.9259 13.5239 11.0073 12.187 11.0073C11.3518 11.0073 10.1941 11.9213 9.62339 12.7496C9.26379 12.9456 8.49355 13.3661 7.67633 13.815C7.36255 13.9873 7.04239 14.1636 6.73847 14.3312C6.71759 14.3086 6.69729 14.2854 6.67583 14.2628C5.05531 12.5338 2.06019 11.3112 2.18721 8.98712C2.23361 8.14206 2.52709 5.91718 7.94313 3.21844C12.3795 1.00748 15.9315 1.6159 16.5451 2.9644C17.4221 4.89058 14.6468 8.47092 10.0398 8.98712C8.28417 9.18374 7.36023 8.5034 7.12997 8.24994C6.88811 7.98314 6.85215 7.97096 6.76167 8.02142C6.61435 8.1032 6.70773 8.33868 6.76167 8.47904C6.89913 8.8369 7.46347 9.472 8.42627 9.78752C9.27307 10.0653 11.3338 10.2179 13.8266 9.25392C16.6182 8.17396 18.7978 5.17014 18.1581 2.65932C17.5067 0.105578 13.2727 -0.733683 9.26553 0.689637C6.88057 1.53702 4.29899 2.86696 2.44241 4.6029C0.234927 6.6677 -0.116553 8.46454 0.0284473 9.21506C0.544067 11.8831 4.22069 13.6202 5.69331 14.9078C5.62081 14.9478 5.55237 14.9855 5.49031 15.0197C4.75197 15.3851 1.94941 16.8519 1.24819 18.4017C0.453007 20.1597 1.37463 21.4212 1.98537 21.5911C3.87617 22.1172 5.81685 21.1706 6.85969 19.615C7.90253 18.0601 7.77493 16.0353 7.29643 15.1108C7.29063 15.0992 7.28367 15.0881 7.27787 15.0765C7.46869 14.9634 7.66299 14.8492 7.85555 14.7361C8.23139 14.5157 8.60027 14.3098 8.92043 14.1352C8.74121 14.6259 8.61013 15.214 8.54169 16.0637C8.46165 17.0619 8.87055 18.3518 9.40589 18.8593C9.64137 19.0826 9.92499 19.0878 10.1048 19.0878C10.7277 19.0878 11.0119 18.5699 11.3245 17.9568C11.7085 17.2051 12.0489 16.3305 12.0489 16.3305C12.0489 16.3305 11.6215 18.694 12.7861 18.694C13.2101 18.694 13.637 18.1436 13.8272 17.8634C13.8278 17.8663 13.8278 17.8681 13.8278 17.8681C13.8278 17.8681 13.8388 17.8501 13.8603 17.813C13.9044 17.7457 13.9293 17.7028 13.9293 17.7028C13.9293 17.7028 13.9305 17.6981 13.9316 17.6906C14.1021 17.3948 14.4803 16.7197 15.0475 15.6061C15.7801 14.1677 16.483 12.3662 16.483 12.3662C16.483 12.3662 16.5486 12.807 16.7626 13.5349C16.8885 13.9635 17.1564 14.4374 17.3675 14.8915C17.1976 15.1276 17.0932 15.2627 17.0932 15.2627C17.0932 15.2627 17.0944 15.265 17.0961 15.2697C16.9604 15.4501 16.8078 15.6444 16.6483 15.8346C16.0701 16.5236 15.381 17.3101 15.2888 17.5375C15.1804 17.8049 15.2059 18.0021 15.4158 18.1598C15.569 18.2752 15.8421 18.2932 16.1275 18.2741C16.6472 18.2393 17.0132 18.1099 17.1935 18.0316C17.4748 17.9325 17.8025 17.7759 18.1099 17.5497C18.6772 17.1326 19.0194 16.5358 18.9869 15.7453C18.9689 15.3097 18.8297 14.8782 18.654 14.4704C18.7056 14.3962 18.7572 14.322 18.8088 14.246C19.7032 12.9381 20.3969 11.5014 20.3969 11.5014C20.3969 11.5014 20.4624 11.9422 20.6764 12.6701C20.7849 13.039 20.9989 13.4409 21.1909 13.8353C20.3499 14.5186 19.8285 15.3126 19.6469 15.8334C19.3123 16.7968 19.5744 17.2336 20.0663 17.3327C20.289 17.378 20.6039 17.2759 20.8406 17.1756C21.1352 17.0781 21.489 16.9151 21.8196 16.6721C22.3869 16.2551 22.9326 15.671 22.8996 14.8805C22.8845 14.5209 22.7871 14.1636 22.6548 13.8203C23.3676 13.5233 24.291 13.358 25.4667 13.4955C27.9891 13.7901 28.4838 15.3648 28.3893 16.0237C28.2947 16.6831 27.7658 17.0451 27.5889 17.1547C27.412 17.2643 27.358 17.302 27.3731 17.3832C27.3946 17.5015 27.4764 17.4969 27.6272 17.4714C27.8348 17.4366 28.9513 16.9354 28.9994 15.7186C29.0598 14.177 27.5796 12.4805 24.958 12.4944ZM5.51757 19.0484C4.68237 19.9596 3.51483 20.3041 3.01429 20.0141C2.47373 19.7009 2.68775 18.3588 3.71319 17.3919C4.33785 16.8026 5.14463 16.2597 5.67997 15.9251C5.80177 15.852 5.98041 15.7441 6.19791 15.6136C6.23387 15.5933 6.25417 15.5817 6.25417 15.5817L6.25359 15.5806C6.29535 15.5556 6.33885 15.5295 6.38293 15.5028C6.75587 16.8798 6.39453 18.092 5.51757 19.0484ZM11.6035 14.9107C11.3123 15.62 10.7033 17.4348 10.3327 17.3374C10.0143 17.2539 9.82059 15.874 10.2689 14.5168C10.4945 13.8336 10.9765 13.017 11.2601 12.6997C11.716 12.1899 12.2183 12.0228 12.3401 12.2299C12.4961 12.4932 11.7862 14.4658 11.6035 14.9107ZM16.6321 17.3101C16.5086 17.3745 16.3955 17.4151 16.3433 17.3838C16.3044 17.3606 16.3943 17.2759 16.3943 17.2759C16.3943 17.2759 17.023 16.599 17.2713 16.2911C17.4151 16.1118 17.5827 15.899 17.7643 15.6612C17.766 15.685 17.7666 15.7087 17.7666 15.7319C17.7643 16.5428 16.9813 17.0897 16.6321 17.3101ZM20.5059 16.4268C20.4137 16.3612 20.4294 16.1495 20.7315 15.4907C20.8504 15.232 21.1213 14.7958 21.5928 14.3794C21.6474 14.5505 21.681 14.7146 21.6798 14.8677C21.6735 15.888 20.9456 16.269 20.5059 16.4268Z" fill="#B86AB0"/>
</svg>
