<svg width="21" height="25" viewBox="0 0 21 25" fill="none" xmlns="http://www.w3.org/2000/svg">
<g clip-path="url(#clip0)">
<path d="M1.94732 22.4535L-0.00195312 0.995117L20.9978 1.00331L19.0649 22.4371L10.4815 24.8614L1.94732 22.4535ZM17.4842 21.2823L19.114 2.90344H10.5143L10.5798 23.1742L17.4842 21.2823V21.2823ZM9.71165 5.59802H7.62314L7.59857 16.5975L3.54441 15.4918L3.5526 18.0062L9.71165 19.6688V5.59802V5.59802Z" fill="#D4B830"/>
<path opacity="0.986" d="M3.55409 18.0055L3.5459 15.4911C3.5459 15.4911 6.13401 16.22 7.60006 16.5967L7.62463 5.60547H9.71313V19.6681L3.55409 18.0055V18.0055Z" fill="#EBEBEB" fill-opacity="0.9216"/>
<path d="M10.5156 2.89453H19.1154L17.4855 21.2734L10.5156 23.1653V2.89453ZM17.0432 18.1939L17.6084 11.3223L13.4313 11.7891V8.11989L17.8868 8.10351L18.067 5.5973L11.3428 5.63006L11.4329 14.754L15.4953 14.0578L15.4379 16.089L11.3428 17.1783L11.3838 19.6681L17.0432 18.1939Z" fill="#FDD83C"/>
</g>
<defs>
<clipPath id="clip0">
<rect width="21" height="23.8745" fill="white" transform="translate(0 0.993164)"/>
</clipPath>
</defs>
</svg>
