<svg xmlns="http://www.w3.org/2000/svg" xmlns:xlink="http://www.w3.org/1999/xlink"><defs><clipPath id="a"><path fill="#fff" d="M0 0h15.196v23H0z"/></clipPath></defs><symbol id="arrow-next"><g fill="none"><path d="M2.076 39.059.077 37.01l17.016-17.447L.022 2.062l2-2.047 19.067 19.549L2.076 39.059Z"/></g></symbol><symbol id="arrow-prew"><g fill="none"><path d="m20.83.97 2.09 2.1L5.13 20.94l17.85 17.94-2.1 2.1L.96 20.95 20.83.97z"/></g></symbol><symbol id="corel-icon"><g fill="none"><circle cx="11.5" cy="11.5" r="11.5" fill="#42A54C"/><path fill-rule="evenodd" clip-rule="evenodd" d="M11.5 23V0C17.851 0 23 5.149 23 11.5S17.851 23 11.5 23Z" fill="#3C9C46"/><path fill-rule="evenodd" clip-rule="evenodd" d="m2.93 3.831 7.455 7.728 1.35-1.291L4.27 2.556c.416-.336.856-.644 1.316-.921l8.202 8.398-5.515 5.398L.679 7.598A11.494 11.494 0 0 1 2.93 3.831Zm11.386 6.789L8.86 15.9l7.862 2.7-2.406-7.98Z" fill="#fff"/><path fill-rule="evenodd" clip-rule="evenodd" d="M11.5 10.025V7.69l2.288 2.343-2.288 2.24v-1.78l.235-.225-.235-.243Zm0 6.782v-3.462l2.816-2.725 2.406 7.98-5.222-1.793Z" fill="#EBEBEB" fill-opacity=".922"/></g></symbol><symbol id="css-icon"><g fill="none"><path d="M20 0H0l1.877 20.615 7.8 2.071 8.414-2.071L20 0Z" fill="#1572B7"/><path d="M18.155 1.683H9.968v19.353l6.666-1.813 1.521-17.54Z" fill="#34A8DB"/><path d="M16.767 3.625H3.172l.279 2.7h6.829L3.7 9.057l.217 2.638h9.374l-.187 3.477-3.041.869-2.98-.714-.187-2.173H4.103l.341 4.19 5.619 1.677 5.587-1.677.683-8.287h-6.27l6.487-2.732.217-2.7Z" fill="#fff"/><path fill-rule="evenodd" clip-rule="evenodd" d="M9.938 3.625H3.172l.279 2.7h6.487v-2.7Zm0 2.842L3.7 9.057l.218 2.638h6.021V6.467Zm0 9.544v2.973l-5.494-1.64-.341-4.19h2.793l.187 2.173 2.855.684Z" fill="#C4C4C4"/></g></symbol><symbol id="figma-icon"><g fill="none"><g clip-path="url(#a)"><path d="M3.8 23c2.096 0 3.798-1.717 3.798-3.833v-3.834H3.8C1.703 15.333 0 17.051 0 19.167S1.703 23 3.8 23Z" fill="#0ACF83"/><path d="M.001 11.5c0-2.116 1.702-3.833 3.799-3.833h3.798v7.666H3.8C1.703 15.333 0 13.616 0 11.5Z" fill="#A259FF"/><path d="M.002 3.833C.002 1.717 1.703 0 3.8 0h3.798v7.667H3.8C1.703 7.667.002 5.949.002 3.833Z" fill="#F24E1E"/><path d="M7.598 0h3.799c2.096 0 3.798 1.717 3.798 3.833s-1.702 3.834-3.798 3.834H7.598V0Z" fill="#FF7262"/><path d="M15.195 11.5c0 2.116-1.702 3.833-3.798 3.833-2.097 0-3.799-1.717-3.799-3.833S9.3 7.667 11.397 7.667c2.096 0 3.798 1.717 3.798 3.833Z" fill="#1ABCFE"/></g></g></symbol><symbol id="github-icon" viewBox="0 0 21 21"><path d="M10.015.765c-5.525-.002-10 4.47-10 9.992 0 4.366 2.799 8.077 6.698 9.44.525.132.445-.241.445-.496V17.97c-3.032.355-3.155-1.652-3.359-1.987-.41-.701-1.383-.88-1.092-1.215.69-.356 1.394.09 2.21 1.293.59.874 1.74.727 2.323.581.128-.525.4-.994.776-1.358-3.142-.563-4.451-2.48-4.451-4.76 0-1.105.364-2.122 1.079-2.942-.456-1.352.042-2.51.11-2.681 1.298-.117 2.647.93 2.752 1.012.738-.2 1.58-.304 2.523-.304.947 0 1.792.11 2.536.31.252-.192 1.504-1.09 2.71-.98.065.172.552 1.302.123 2.636.724.822 1.093 1.848 1.093 2.956 0 2.284-1.319 4.203-4.47 4.757a2.85 2.85 0 0 1 .852 2.034v2.513c.018.201 0 .4.335.4 3.957-1.334 6.806-5.072 6.806-9.476 0-5.523-4.477-9.994-9.999-9.994Z"/></symbol><symbol id="html-icon"><g fill="none"><path fill-rule="evenodd" clip-rule="evenodd" d="M9.971 0H0l1.957 19.767 8.014 2.293 8.008-2.293L20 0" fill="#E4492F"/><path fill-rule="evenodd" clip-rule="evenodd" d="m16.408 18.627 1.696-17.163H9.892V20.34" fill="#E96D31"/><path fill-rule="evenodd" clip-rule="evenodd" d="M12.825 14.303 9.892 15.45l-2.862-.891v-1.906l-2.678-.069.325 3.75 5.151 1.651 5.267-1.526.656-7.507H6.443l-.262-2.535h9.768l.134-2.486H3.516l.721 7.438h8.594" fill="#fff"/></g></symbol><symbol id="js-icon"><g fill="none"><path d="M20 0H0l1.877 20.615 7.8 2.071 8.414-2.071L20 0Z" fill="#D4B830"/><path opacity=".986" d="M8.537 17.811c-.257-.078-1.529-.42-2.823-.772l-2.348-.632V15.23c0-1.155 0-1.178.117-1.14.062.024.92.258 1.903.531l1.786.492.016-5.227.015-5.226h1.95v6.646c0 5.28-.015 6.646-.07 6.646-.039-.008-.288-.07-.546-.14Z" fill="#fff"/><path d="M18.22 1.683h-8.188v19.353l6.667-1.813 1.521-17.54Z" fill="#FDD83C"/><path d="M17.314 4.595h-6.376v8.641l3.884-.647v1.942l-3.883.97v2.428l5.404-1.327.485-6.602-3.98.42V6.959h4.272l.194-2.363Z" fill="#fff"/></g></symbol><symbol id="phone-icon" viewBox="0 0 21 21"><path d="M10.96 20.5c5.523 0 10-4.477 10-10s-4.477-10-10-10-10 4.477-10 10 4.477 10 10 10ZM7.604 2.525h6.711c.641 0 1.16.52 1.16 1.162v13.627c0 .64-.519 1.16-1.16 1.16h-6.71a1.16 1.16 0 0 1-1.161-1.16V3.687a1.16 1.16 0 0 1 1.16-1.162Zm5.013.706H9.304c-.084 0-.151.125-.151.28 0 .154.067.28.15.28h3.314c.084 0 .152-.126.152-.28 0-.155-.068-.28-.152-.28Zm-2.398 13.356c0 .409.333.741.741.741a.742.742 0 0 0 0-1.482.741.741 0 0 0-.74.74Zm-2.905-1.798h7.292V4.485H7.314V14.79Z"/></symbol><symbol id="ps-icon"><g fill="none"><path fill="#283593" stroke="#90CAF9" stroke-width="2" d="M1 1h21v21H1z"/><path d="M5.888 7.6V16h2.028V7.6H5.888ZM7.16 9.268h1.644c.408 0 .728.092.96.276.232.184.348.452.348.804 0 .344-.116.608-.348.792-.232.184-.552.276-.96.276H7.16v1.668h1.644c.712 0 1.308-.108 1.788-.324.488-.224.856-.54 1.104-.948.248-.416.372-.904.372-1.464 0-.576-.124-1.068-.372-1.476-.248-.408-.616-.72-1.104-.936-.48-.224-1.076-.336-1.788-.336H7.16v1.668Zm5.961 4.728-.756 1.2c.248.192.516.368.804.528.288.152.6.272.936.36.344.096.716.144 1.116.144.656 0 1.164-.148 1.524-.444.368-.304.552-.752.552-1.344 0-.344-.076-.62-.228-.828a1.684 1.684 0 0 0-.588-.516 5.155 5.155 0 0 0-.792-.36 17.463 17.463 0 0 0-.696-.252 1.78 1.78 0 0 1-.432-.228.375.375 0 0 1-.144-.3c0-.104.04-.188.12-.252.088-.064.216-.096.384-.096.248 0 .52.072.816.216.296.136.56.312.792.528l.648-1.176a4.347 4.347 0 0 0-1.476-.708 3.463 3.463 0 0 0-.888-.108c-.4 0-.756.06-1.068.18-.304.12-.548.296-.732.528-.176.232-.264.516-.264.852 0 .352.076.64.228.864.152.224.344.404.576.54.24.128.492.24.756.336.296.088.528.172.696.252.176.08.3.164.372.252.072.08.108.18.108.3a.402.402 0 0 1-.132.312c-.088.08-.224.12-.408.12-.128 0-.28-.024-.456-.072a3.505 3.505 0 0 1-.612-.276 6.527 6.527 0 0 1-.756-.552Z" fill="#90CAF9"/></g></symbol><symbol id="scss-icon"><g fill="none"><path d="M24.958 12.494a5.965 5.965 0 0 0-2.627.612c-.27-.537-.542-1.01-.588-1.362-.053-.41-.115-.654-.051-1.143.064-.49.347-1.181.343-1.233-.004-.051-.063-.3-.648-.305-.585-.004-1.085.113-1.144.267-.059.154-.171.502-.241.864-.103.53-1.167 2.421-1.772 3.41-.198-.386-.366-.726-.4-.995-.054-.41-.116-.655-.052-1.144.065-.49.348-1.181.343-1.233-.004-.051-.063-.3-.648-.305-.584-.004-1.084.113-1.144.267-.059.154-.122.515-.24.864-.121.35-1.536 3.503-1.907 4.32-.189.417-.353.751-.469.98v-.001l-.02.04c-.1.195-.159.303-.159.303l.002.004c-.079.143-.163.276-.205.276-.029 0-.087-.381.013-.902.21-1.094.716-2.8.712-2.86-.003-.03.094-.326-.33-.482-.413-.151-.56.1-.598.101-.037 0-.064.089-.064.089s.46-1.919-.877-1.919c-.835 0-1.993.914-2.564 1.743a726.02 726.02 0 0 0-2.885 1.581c-.02-.022-.04-.046-.062-.068-1.62-1.73-4.616-2.952-4.489-5.276.047-.845.34-3.07 5.756-5.769 4.437-2.21 7.989-1.602 8.602-.254.877 1.927-1.898 5.507-6.505 6.023-1.756.197-2.68-.484-2.91-.737-.242-.267-.278-.279-.368-.229-.148.082-.054.318 0 .458.137.358.701.993 1.664 1.309.847.277 2.908.43 5.4-.534 2.792-1.08 4.972-4.084 4.332-6.595C17.507.106 13.273-.734 9.266.69c-2.385.848-4.967 2.178-6.824 3.914C.235 6.668-.117 8.465.028 9.215c.516 2.668 4.193 4.405 5.665 5.693l-.203.112c-.738.365-3.54 1.832-4.242 3.382-.795 1.758.127 3.02.737 3.19 1.891.525 3.832-.421 4.875-1.977 1.043-1.555.915-3.58.436-4.504-.005-.012-.012-.023-.018-.035.19-.113.385-.227.578-.34.375-.22.744-.426 1.064-.6-.179.49-.31 1.078-.378 1.928-.08.998.329 2.288.864 2.795.235.224.519.229.699.229.623 0 .907-.518 1.22-1.131.384-.752.724-1.627.724-1.627s-.428 2.364.737 2.364c.424 0 .851-.55 1.041-.83v.004s.012-.018.033-.055c.044-.067.07-.11.07-.11l.002-.012c.17-.296.548-.971 1.115-2.085.733-1.438 1.436-3.24 1.436-3.24s.066.441.28 1.169c.125.428.393.902.604 1.357-.17.236-.274.37-.274.37l.003.008c-.136.18-.288.374-.448.565-.578.689-1.267 1.475-1.36 1.703-.108.267-.082.464.128.622.153.115.426.133.712.114.52-.035.885-.164 1.066-.242.28-.1.608-.256.916-.482.567-.417.91-1.014.877-1.805-.018-.435-.157-.867-.333-1.275l.155-.224c.894-1.308 1.588-2.745 1.588-2.745s.065.441.28 1.17c.108.368.322.77.514 1.164-.841.684-1.363 1.478-1.544 1.998-.335.964-.073 1.4.42 1.5.222.045.537-.057.774-.157.294-.098.648-.26.979-.504.567-.417 1.113-1.001 1.08-1.792a3.37 3.37 0 0 0-.245-1.06c.713-.297 1.636-.462 2.812-.325 2.522.295 3.017 1.87 2.922 2.529-.094.66-.623 1.021-.8 1.13-.177.11-.231.148-.216.23.022.117.103.113.254.087.208-.034 1.324-.536 1.372-1.752.06-1.542-1.42-3.239-4.041-3.225Zm-19.44 6.554c-.836.912-2.003 1.256-2.504.966-.54-.313-.326-1.655.7-2.622.624-.59 1.43-1.132 1.966-1.467l.518-.311.056-.032v-.001l.129-.078c.373 1.377.012 2.589-.865 3.545Zm6.086-4.137c-.292.709-.9 2.524-1.271 2.426-.319-.083-.512-1.463-.064-2.82.226-.683.707-1.5.991-1.817.456-.51.958-.677 1.08-.47.156.263-.554 2.236-.736 2.68Zm5.028 2.4c-.123.064-.237.104-.289.073-.039-.023.051-.108.051-.108s.629-.677.877-.985c.144-.18.312-.392.493-.63a.993.993 0 0 1 .003.07c-.003.812-.786 1.359-1.135 1.58Zm3.874-.884c-.092-.066-.077-.277.226-.936.118-.259.39-.695.86-1.112.055.171.089.336.088.489-.006 1.02-.734 1.401-1.174 1.559Z" fill="#B86AB0"/></g></symbol></svg>